<svg width="163" height="43" viewBox="0 0 163 43" fill="none" xmlns="http://www.w3.org/2000/svg">
<path d="M55.792 33.16C57.552 33.16 59.056 32.904 60.272 32.36C61.488 31.816 62.384 31.112 62.992 30.216C63.568 29.32 63.856 28.328 63.856 27.24C63.856 25.928 63.504 24.872 62.832 24.072C62.128 23.304 61.296 22.728 60.304 22.344C59.312 21.96 58 21.576 56.368 21.16C54.896 20.808 53.744 20.456 52.88 20.136C52.016 19.816 51.312 19.368 50.736 18.76C50.16 18.152 49.872 17.352 49.872 16.36C49.872 15.048 50.416 13.96 51.472 13.128C52.528 12.296 54.096 11.88 56.176 11.88C57.232 11.88 58.288 12.04 59.376 12.36C60.432 12.68 61.424 13.16 62.32 13.768L62.928 12.456C62.064 11.848 61.008 11.336 59.824 10.984C58.64 10.632 57.424 10.44 56.176 10.44C54.416 10.44 52.944 10.696 51.76 11.24C50.576 11.784 49.68 12.488 49.104 13.384C48.528 14.312 48.24 15.304 48.24 16.392C48.24 17.736 48.592 18.792 49.296 19.592C49.968 20.392 50.832 21 51.824 21.384C52.816 21.768 54.128 22.152 55.76 22.568C57.2 22.92 58.352 23.24 59.216 23.56C60.08 23.88 60.784 24.328 61.36 24.936C61.936 25.544 62.224 26.344 62.224 27.336C62.224 28.648 61.68 29.704 60.592 30.504C59.504 31.304 57.904 31.72 55.76 31.72C54.288 31.72 52.88 31.464 51.568 30.92C50.224 30.408 49.168 29.736 48.368 28.904L47.632 30.12C48.464 31.016 49.616 31.752 51.12 32.296C52.592 32.872 54.16 33.16 55.792 33.16ZM78.908 33.16C81.116 33.16 83.1 32.68 84.86 31.688C86.62 30.696 88.028 29.352 89.052 27.624C90.044 25.896 90.556 23.944 90.556 21.8C90.556 19.656 90.044 17.704 89.052 15.976C88.028 14.248 86.62 12.904 84.86 11.912C83.1 10.92 81.116 10.44 78.908 10.44C76.7 10.44 74.716 10.92 72.956 11.912C71.196 12.904 69.788 14.28 68.796 16.008C67.772 17.736 67.26 19.656 67.26 21.8C67.26 23.944 67.772 25.864 68.796 27.592C69.788 29.32 71.196 30.664 72.956 31.656C74.716 32.648 76.7 33.16 78.908 33.16ZM78.908 31.656C77.02 31.656 75.324 31.24 73.82 30.376C72.284 29.512 71.068 28.328 70.204 26.824C69.34 25.32 68.892 23.656 68.892 21.8C68.892 19.944 69.34 18.248 70.204 16.744C71.068 15.24 72.284 14.088 73.82 13.224C75.324 12.36 77.02 11.944 78.908 11.944C80.796 11.944 82.492 12.36 83.996 13.224C85.5 14.088 86.716 15.24 87.58 16.744C88.444 18.248 88.892 19.944 88.892 21.8C88.892 23.656 88.444 25.32 87.58 26.824C86.716 28.328 85.5 29.512 83.996 30.376C82.492 31.24 80.796 31.656 78.908 31.656ZM96.2165 33H97.8485V10.6H96.2165V33ZM105.654 33H120.182V31.528H107.286V10.6H105.654V33ZM124.373 33H138.901V31.528H126.005V10.6H124.373V33ZM141.076 33L150.388 12.456H150.516L159.86 32.968H161.588L151.284 10.6H149.652L139.348 33H141.076Z" fill="black"/>
<circle cx="21.5" cy="21.5" r="21.5" fill="#028D16"/>
<path fill-rule="evenodd" clip-rule="evenodd" d="M21.7179 6.31769C21.402 6.6336 20.5308 8.33667 20.1618 9.35988C18.991 12.6057 19.3689 15.5168 21.2177 17.4929L21.6807 17.9877V19.7301V21.4725L21.4182 21.1833C21.1842 20.9254 21.1478 20.8454 21.0832 20.4464C20.5153 16.9387 17.0475 14.5055 12.489 14.416C11.6524 14.3997 11.6593 14.3981 11.3991 14.6583L11.1589 14.8985L11.1952 15.2872C11.2152 15.5009 11.3377 15.9935 11.4675 16.3817C12.65 19.9185 15.5611 21.8148 19.6098 21.6856L20.5537 21.6555L20.837 22.0056C21.1529 22.396 21.4437 22.9455 21.5804 23.4102L21.6709 23.718L21.2431 23.7569C19.7415 23.8935 18.0578 24.3806 16.9407 25.0015L16.5878 25.1977L16.1052 25.0491C15.6798 24.9183 15.5092 24.9002 14.6676 24.8968C13.2183 24.891 13.0096 24.9637 10.5882 26.3181L8.83661 27.2979L8.50802 27.125C7.939 26.8256 7.64938 26.8766 6.64917 27.4517C5.71336 27.9899 5.41396 28.4551 5.56622 29.1346C5.62726 29.4067 9.37942 35.9858 9.6718 36.3333C10.1495 36.901 10.8232 36.8917 11.8324 36.3033C12.9266 35.6655 13.1799 35.1926 12.8997 34.3115C12.8632 34.1969 13.7325 33.4652 13.9866 33.3968C14.1926 33.3414 14.396 33.3953 16.3794 34.032C19.0942 34.9034 18.4892 34.8718 23.1768 34.3873C28.0592 33.8828 27.1938 34.1817 30.6635 31.8011C33.6363 29.7613 33.3957 29.9471 33.5971 29.5354C34.308 28.0824 32.8832 26.7088 31.4237 27.4401L31.0498 27.6274L30.8268 27.4487C27.5079 24.7892 26.0797 24.0866 23.38 23.7856C23.0528 23.7491 22.7763 23.7106 22.7659 23.7002C22.6569 23.5912 23.2632 22.3831 23.6594 21.9196L23.8878 21.6525L24.7399 21.6843C27.2461 21.7781 29.7757 21.0081 29.5172 20.23C29.3866 19.8368 29.1354 19.8295 28.2731 20.194C27.4741 20.5318 26.149 20.7748 25.3299 20.7339L24.9503 20.7149L25.5984 20.2017C27.2938 18.8596 29.345 17.4723 31.4192 16.2651L32.1163 15.8594L32.0025 16.1901C31.726 16.9939 31.1576 17.964 30.5822 18.6145C30.1336 19.1215 30.2227 19.6107 30.7636 19.6107C31.2945 19.6107 32.4547 17.8784 32.9655 16.3228C33.5572 14.5207 33.2395 14.2278 30.9657 14.4792C26.6806 14.9529 23.7402 17.2962 23.3216 20.5708C23.2856 20.8525 23.2389 20.9393 22.958 21.2469L22.6357 21.5997V19.8121V18.0245L22.9415 17.7284C25.4907 15.2596 25.5094 10.9993 22.9896 6.80381C22.6051 6.16352 22.0748 5.96083 21.7179 6.31769ZM23.3301 9.79237C24.2599 12.452 24.0509 14.993 22.7839 16.4325L22.6394 16.5966L22.6421 12.3887L22.6447 8.18082L22.8831 8.68818C23.0142 8.96719 23.2153 9.46409 23.3301 9.79237ZM21.6665 14.4584L21.6508 16.5369L21.3562 16.0913C20.1383 14.2501 20.1434 11.8368 21.371 8.95672L21.6508 8.30015L21.6665 10.3401C21.6751 11.462 21.6751 13.3153 21.6665 14.4584ZM14.7272 15.6841C17.1258 16.2309 18.853 17.4291 19.649 19.0987C20.0183 19.8734 20.0204 19.9193 19.6741 19.6323C18.5738 18.7201 16.2887 17.1259 14.6377 16.1183C14.1617 15.8278 13.7454 15.5654 13.7126 15.5352C13.6376 15.4661 14.0114 15.521 14.7272 15.6841ZM30.748 15.5138C30.7343 15.5255 30.2637 15.8201 29.7021 16.1684C27.9563 17.2511 25.8355 18.7298 24.8267 19.5675C24.4479 19.8821 24.4314 19.8343 24.712 19.2354C25.572 17.4002 27.2895 16.1995 29.8544 15.6401C30.4323 15.514 30.8099 15.4606 30.748 15.5138ZM13.5036 16.5642C15.3609 17.6709 18.0603 19.5405 19.3231 20.5947L19.5021 20.7442L19.0545 20.7443C15.951 20.7452 13.517 19.1028 12.46 16.2946C12.2773 15.8094 12.206 15.7909 13.5036 16.5642ZM23.5322 24.7701C25.769 25.0679 27.912 26.1575 30.0573 28.0879C30.2144 28.2293 27.1922 29.6127 26.4779 29.7263L26.2316 29.7654L26.1915 29.4447C26.0896 28.629 25.5161 27.898 24.7701 27.6329C24.6302 27.5831 23.6429 27.4367 22.576 27.3073C20.3648 27.0393 20.134 26.9809 19.2734 26.4704C18.9396 26.2724 18.4698 26.0128 18.2293 25.8933L17.792 25.6761L17.9905 25.5747C19.3688 24.8702 21.7204 24.5288 23.5322 24.7701ZM16.0087 26.0251C16.829 26.2922 17.6675 26.6741 18.5577 27.1861C19.8331 27.9195 19.8876 27.9349 22.2832 28.2319C24.8122 28.5455 25.0881 28.6668 25.2338 29.5291C25.2899 29.861 25.4127 29.8363 22.9498 29.9885C20.5858 30.1346 20.4211 30.1597 20.3167 30.3886C20.0944 30.8765 20.3477 31.0966 21.0796 31.0515C21.3938 31.0321 22.5506 30.9618 23.6503 30.8952C27.42 30.6667 27.3304 30.6893 29.9473 29.308C32.2555 28.0895 32.1714 28.1295 32.3407 28.1719C32.7525 28.2753 32.9313 28.7811 32.6928 29.1678C32.6117 29.2993 27.6247 32.7283 27.3054 32.8721C26.9479 33.0332 20.1516 33.8161 19.1111 33.8161C18.9737 33.8161 17.9728 33.5256 16.7118 33.1198C13.9007 32.2151 13.6751 32.21 12.7791 33.0303C12.3399 33.4325 12.4355 33.5084 11.6392 32.1259C11.255 31.4588 10.8907 30.868 10.8298 30.8127C10.6536 30.6534 10.3127 30.6825 10.1656 30.8696C9.94011 31.1563 9.89053 31.0372 11.1193 33.1632C12.2512 35.1215 12.2286 34.9394 11.3997 35.4257C10.6668 35.8556 10.5189 35.8742 10.3157 35.5619C10.1515 35.3095 6.71265 29.3554 6.55482 29.0501C6.4092 28.7686 6.50584 28.6528 7.23239 28.2378C8.03603 27.7788 8.0044 27.7659 8.58786 28.7864C9.138 29.7486 9.19698 29.8171 9.47484 29.8171C9.98938 29.8171 10.0574 29.3888 9.65392 28.6893C9.50616 28.4332 9.3853 28.1965 9.3853 28.1634C9.3853 28.0769 12.7478 26.2136 13.1754 26.0633C14.0437 25.7579 15.1428 25.7431 16.0087 26.0251Z" fill="white"/>
</svg>
